<svg xmlns="http://www.w3.org/2000/svg" enable-background="new 0 0 36 36" viewBox="0 0 36 36"><path fill="#EFEFEF" d="M11.532,34.802c6.645-1.919,12.203,0.206,15.405-0.719s9.396-4.708,5.142-19.44S18.155,0.363,14.632,1.38C-1.861,6.143-0.237,38.201,11.532,34.802z"/><rect width="2" height="1" x="8.566" y="9.453" fill="#A4AFC1" transform="rotate(-45.001 9.566 9.953)"/><rect width="2" height="1" x="4.5" y="13.519" fill="#A4AFC1" transform="rotate(-45.001 5.5 14.019)"/><rect width="1" height="2" x="5" y="8.776" fill="#A4AFC1" transform="rotate(-45.001 5.5 9.776)"/><path fill="#A4AFC1" d="M28.162,30.5c-0.827,0-1.5-0.673-1.5-1.5s0.673-1.5,1.5-1.5s1.5,0.673,1.5,1.5S28.989,30.5,28.162,30.5z M28.162,28.5c-0.275,0-0.5,0.224-0.5,0.5s0.225,0.5,0.5,0.5s0.5-0.224,0.5-0.5S28.438,28.5,28.162,28.5z"/><path fill="#2FDF84" d="M26.25,12.428L26.25,12.428l-3.581-0.001v7.268c0,3.203-0.162,4.423-0.674,5.474c-0.488,1.028-1.256,1.698-2.837,2.463l3.326,1.626c1.581-0.812,2.349-1.554,2.93-2.725c0.628-1.219,0.837-2.63,0.837-5.57V12.428z"/><path fill="#F3F3F1" d="M20.25,23.769V6.758h-3.644v5.604c-0.544-0.143-0.994-0.191-1.585-0.191c-3.81,0-6.271,2.434-6.271,6.181c0,3.89,2.319,5.919,6.768,5.919C17.008,24.27,18.381,24.127,20.25,23.769z M12.465,18.28c0-2.005,1.064-3.15,2.91-3.15h-0.004c0.026-0.001,0.051-0.001,0.077-0.001c0.414,0,0.812,0.07,1.157,0.192v5.894c-0.52,0.072-0.852,0.096-1.254,0.096C13.483,21.31,12.465,20.237,12.465,18.28z"/><rect width="3.581" height="3.777" x="22.669" y="6.762" fill="#2FDF84"/><path fill="#00B871" d="M21.407,27.632c1.582-0.765,2.349-1.435,2.837-2.463c0.512-1.052,0.674-2.271,0.674-5.474v-7.268h-2.25v7.268c0,3.203-0.162,4.423-0.674,5.474c-0.488,1.028-1.256,1.698-2.837,2.463l3.326,1.626c0.39-0.201,0.73-0.397,1.031-0.596L21.407,27.632z"/><path fill="#D5DBE1" d="M11,18.352c0-3.34,1.958-5.631,5.081-6.091c-0.335-0.056-0.669-0.09-1.061-0.09c-3.81,0-6.271,2.434-6.271,6.181c0,3.89,2.319,5.919,6.768,5.919c0.471,0,0.934-0.02,1.401-0.051C13.041,23.964,11,21.979,11,18.352z"/><path fill="#D5DBE1" d="M17.602 21.31c.402 0 .734-.023 1.254-.096V15.32c-.345-.122-.743-.192-1.157-.192-.026 0-.051 0-.077.001h.004c-.406 0-.766.065-1.094.172.024.008.051.011.074.019v5.854C16.907 21.256 17.233 21.31 17.602 21.31zM17.271 12.171c.592 0 1.041.048 1.585.191V6.758h-2.25v5.44C16.823 12.181 17.044 12.171 17.271 12.171z"/><rect width="2.25" height="3.777" x="22.669" y="6.762" fill="#00B871"/><path d="M22.482,30.008c-0.112,0-0.226-0.025-0.329-0.076l-3.325-1.625c-0.258-0.126-0.422-0.388-0.421-0.675s0.165-0.549,0.424-0.674c1.422-0.688,2.072-1.239,2.486-2.11c0.462-0.948,0.602-2.15,0.602-5.152v-7.268c0-0.414,0.336-0.75,0.75-0.75h3.581c0.414,0,0.75,0.337,0.75,0.751v8.535c0,3.086-0.232,4.579-0.92,5.914c-0.658,1.327-1.572,2.185-3.255,3.048C22.718,29.98,22.6,30.008,22.482,30.008z M20.777,27.589l1.691,0.827c1.183-0.65,1.796-1.256,2.272-2.217c0.568-1.104,0.759-2.422,0.759-5.237v-7.785l-2.081-0.001v6.518c0,3.306-0.168,4.608-0.749,5.803C22.268,26.343,21.697,26.987,20.777,27.589z"/><path d="M15.518 25.021C10.67 25.021 8 22.652 8 18.352c0-4.146 2.821-6.931 7.021-6.931.305 0 .576.013.836.041V6.758c0-.414.336-.75.75-.75h3.644c.414 0 .75.336.75.75V23.77c0 .36-.256.669-.609.737C18.48 24.872 17.068 25.021 15.518 25.021zM15.021 12.921c-3.405 0-5.521 2.081-5.521 5.431 0 3.478 1.969 5.168 6.018 5.168 1.282 0 2.472-.11 3.982-.376V7.508h-2.144v4.854c0 .232-.107.452-.292.594s-.425.189-.648.132C15.954 12.966 15.576 12.921 15.021 12.921zM15.353 22.06c-2.277 0-3.637-1.413-3.637-3.78 0-2.404 1.399-3.897 3.653-3.9.001 0 .002 0 .003 0-.01-.001.07-.001.077-.001.483 0 .97.081 1.406.234.3.105.501.389.501.708v5.895c0 .375-.276.692-.647.743C16.168 22.032 15.801 22.06 15.353 22.06zM15.376 15.879c-1.434 0-2.16.808-2.16 2.4 0 1.556.679 2.28 2.137 2.28.177 0 .336-.005.504-.017v-4.636c-.143-.02-.289-.019-.434-.029C15.407 15.879 15.392 15.879 15.376 15.879zM26.25 11.289h-3.581c-.414 0-.75-.336-.75-.75V6.762c0-.414.336-.75.75-.75h3.581c.414 0 .75.336.75.75v3.777C27 10.953 26.664 11.289 26.25 11.289zM23.419 9.789H25.5V7.512h-2.081V9.789z"/></svg>